HIERARCHY
ROOT Hips
{
	OFFSET 0.000000 0.000000 0.000000
	CHANNELS 6 Xposition Yposition Zposition Yrotation Xrotation Zrotation
	JOINT Chest
	{
		OFFSET 0.000000 -0.009281 11.569106
		CHANNELS 3 Yrotation Xrotation Zrotation
		JOINT Chest2
		{
			OFFSET -0.000000 0.016865 9.269641
			CHANNELS 3 Yrotation Xrotation Zrotation
			JOINT Chest3
			{
				OFFSET -0.000000 0.000001 8.374491
				CHANNELS 3 Yrotation Xrotation Zrotation
				JOINT Chest4
				{
					OFFSET -0.000000 0.000001 8.374493
					CHANNELS 3 Yrotation Xrotation Zrotation
					JOINT Neck
					{
						OFFSET -0.000000 0.000002 12.152554
						CHANNELS 3 Yrotation Xrotation Zrotation
						JOINT Head
						{
							OFFSET -0.000000 0.040101 7.802319
							CHANNELS 3 Yrotation Xrotation Zrotation
							End Site
							{
								OFFSET -0.000000 0.020947 14.853096
							}
						}
					}
					JOINT RightCollar
					{
						OFFSET 2.894404 0.000001 6.791374
						CHANNELS 3 Yrotation Xrotation Zrotation
						JOINT RightShoulder
						{
							OFFSET 13.574684 0.000001 0.000000
							CHANNELS 3 Yrotation Xrotation Zrotation
							JOINT RightElbow
							{
								OFFSET 23.923903 0.000002 0.000000
								CHANNELS 3 Yrotation Xrotation Zrotation
								JOINT RightWrist
								{
									OFFSET 19.846718 0.012767 0.000000
									CHANNELS 3 Yrotation Xrotation Zrotation
									End Site
									{
										OFFSET 14.973145 0.000001 0.000000
									}
								}
							}
						}
					}
					JOINT LeftCollar
					{
						OFFSET -2.894404 0.000001 6.791374
						CHANNELS 3 Yrotation Xrotation Zrotation
						JOINT LeftShoulder
						{
							OFFSET -13.574684 -0.000001 0.000000
							CHANNELS 3 Yrotation Xrotation Zrotation
							JOINT LeftElbow
							{
								OFFSET -23.923903 -0.000002 0.000000
								CHANNELS 3 Yrotation Xrotation Zrotation
								JOINT LeftWrist
								{
									OFFSET -19.846718 0.012763 0.000000
									CHANNELS 3 Yrotation Xrotation Zrotation
									End Site
									{
										OFFSET -14.973145 -0.000001 0.000000
									}
								}
							}
						}
					}
				}
			}
		}
	}
	JOINT RightHip
	{
		OFFSET 9.469263 0.004643 0.045487
		CHANNELS 3 Yrotation Xrotation Zrotation
		JOINT RightKnee
		{
			OFFSET 0.000000 0.002661 -40.478676
			CHANNELS 3 Yrotation Xrotation Zrotation
			JOINT RightAnkle
			{
				OFFSET 0.000000 0.049106 -35.224068
				CHANNELS 3 Yrotation Xrotation Zrotation
				JOINT RightToe
				{
					OFFSET -0.000001 12.539529 -6.151390
					CHANNELS 3 Yrotation Xrotation Zrotation
					End Site
					{
						OFFSET -0.000001 5.044994 -1.291870
					}
				}
			}
		}
	}
	JOINT LeftHip
	{
		OFFSET -9.469263 0.004641 0.045487
		CHANNELS 3 Yrotation Xrotation Zrotation
		JOINT LeftKnee
		{
			OFFSET 0.000000 0.002661 -40.478676
			CHANNELS 3 Yrotation Xrotation Zrotation
			JOINT LeftAnkle
			{
				OFFSET 0.000000 0.049106 -35.224068
				CHANNELS 3 Yrotation Xrotation Zrotation
				JOINT LeftToe
				{
					OFFSET -0.000001 12.539529 -6.151390
					CHANNELS 3 Yrotation Xrotation Zrotation
					End Site
					{
						OFFSET -0.000001 5.044994 -1.291870
					}
				}
			}
		}
	}
}
MOTION
Frames: 8
Frame Time: 0.016667
101.247940 37.782253 81.788872 -5.586959 3.200009 -20.282380 3.129738 -2.298205 1.436067 1.420986 -1.089682 0.579795 1.420986 -1.089682 0.579795 1.066742 -0.815920 0.437369 6.508266 -16.502422 -15.128615 6.754851 5.423747 -25.748514 9.807426 -2.450912 -0.468957 60.060312 -17.360469 40.134656 -9.607258 -29.335727 25.676851 -27.450025 -5.002695 15.051473 -7.903173 -0.115760 6.041891 -78.703443 16.158143 18.949583 11.695672 11.153444 10.406491 13.746562 1.795027 -19.797428 3.015740 -16.276136 -9.689866 5.438040 -17.960302 -1.494805 14.219964 0.186110 6.167473 -18.128849 26.256494 -3.786022 -5.535561 6.077540 2.933747 -2.604178 0.024982 5.561451 1.298654 -11.115433 0.814205 0.691179 2.430222 -0.255752 
101.249565 39.065414 81.714890 -5.118395 3.932913 -19.827201 3.067500 -2.349576 1.407952 1.446105 -1.107910 0.619077 1.446105 -1.107910 0.619075 1.085669 -0.829474 0.466916 5.900660 -16.693063 -14.677363 5.819303 5.015723 -25.116544 9.739529 -3.057808 -0.373607 61.010241 -15.921395 39.850028 -9.656507 -28.805828 29.734819 -29.771951 -3.409845 17.542532 -7.729449 -0.336766 6.697764 -77.717567 16.979031 19.852266 11.895937 10.968135 10.541739 13.269828 1.501920 -18.455721 1.294361 -15.769052 -9.913577 5.845075 -21.388480 -2.292907 15.922954 -1.860674 7.224242 -20.400464 30.097341 -4.893684 -6.875392 5.331218 2.920311 -2.364068 -1.077629 6.152164 1.843237 -10.878207 0.563541 0.404118 2.990037 -0.281217 
101.189247 40.284996 81.622375 -4.351495 4.599700 -19.335678 2.741336 -2.367161 1.384011 1.486847 -1.111799 0.647146 1.486847 -1.111799 0.647150 1.116279 -0.832282 0.488056 5.290557 -16.842635 -14.223712 4.873246 4.684326 -24.482118 9.676501 -3.260609 -0.427020 61.886302 -14.798057 39.343976 -9.263642 -28.080984 33.213431 -32.240276 -1.147998 20.706874 -7.521105 -0.503238 7.326315 -76.732148 17.889111 20.570184 11.984046 10.947230 10.552339 12.831133 1.248159 -16.884356 -0.857416 -14.857722 -10.165255 6.362177 -25.233581 -3.135720 17.585919 -4.221800 8.486698 -23.058184 34.131606 -6.275640 -8.210469 4.593440 2.620880 -2.511314 -1.929713 6.377757 2.661619 -10.060025 0.573477 0.001990 2.791117 -0.071956 
101.138046 41.497272 81.463875 -3.376584 5.409639 -19.026566 2.223425 -2.552732 1.504171 1.520440 -1.114087 0.659086 1.520440 -1.114088 0.659083 1.141497 -0.833933 0.497071 4.673391 -16.971992 -13.745545 3.918782 4.392670 -23.804746 9.547704 -3.278117 -0.542974 62.713622 -13.928354 38.695412 -8.448974 -27.197651 36.061083 -34.785884 2.088014 24.584421 -7.404713 -0.472779 7.885383 -75.506416 18.865898 21.266530 11.901645 11.146753 10.491673 12.304799 1.032615 -15.240061 -3.484891 -13.797846 -10.413399 6.850769 -29.496978 -3.579995 19.239087 -6.975765 9.868427 -26.401881 38.401028 -8.296767 -9.571650 3.400432 3.285486 -2.950055 -2.267442 5.505136 3.628925 -9.307320 0.579767 -0.315564 2.515811 0.475229 
101.059830 42.865482 81.255676 -2.181498 6.277754 -19.130984 1.517669 -2.818040 1.964998 1.528703 -1.099613 0.665245 1.528703 -1.099614 0.665245 1.147691 -0.823054 0.501672 4.060772 -17.109532 -13.235350 2.983818 4.091346 -23.064664 9.424730 -3.433793 -0.541969 63.483323 -13.030617 38.067598 -7.436547 -26.379487 38.415986 -37.412074 6.063636 28.561951 -7.391882 -0.131972 8.348961 -73.998577 19.878154 22.143408 11.762303 11.564580 10.397568 11.583605 0.989423 -13.709499 -6.509470 -12.509687 -10.404495 7.006297 -34.129864 -3.306323 20.794673 -9.850781 10.979498 -30.185861 42.828285 -10.748386 -11.228537 2.210854 4.518088 -3.234311 -2.453256 4.995193 4.731678 -8.644176 0.102146 -0.603711 2.350972 0.982831 
101.023720 44.115185 81.025505 -1.149187 6.684430 -18.947793 1.158984 -2.775191 2.016327 1.508653 -1.074003 0.664814 1.508653 -1.074003 0.664813 1.132626 -0.803868 0.501248 3.460987 -17.255110 -12.688728 2.084732 3.782639 -22.251042 9.373273 -3.279613 -0.531807 64.294435 -12.405737 37.145834 -6.413998 -25.709296 40.359704 -39.928313 10.212915 32.248205 -7.433616 0.249663 8.759836 -72.496871 20.812386 22.935036 11.634429 12.264837 10.286106 10.713048 1.311243 -12.419317 -9.040849 -10.573549 -10.788031 6.671719 -39.045879 -2.255664 22.424737 -12.310550 11.949808 -34.502202 46.423611 -13.682413 -12.752191 1.413013 4.983094 -3.329817 -2.789733 5.319023 5.934785 -7.471652 -0.391295 -0.930814 1.915833 1.068518 
101.118118 45.332970 80.829018 -0.640264 6.751577 -18.586946 1.409007 -2.649168 1.721464 1.456929 -1.042090 0.645686 1.456929 -1.042089 0.645686 1.093769 -0.780035 0.486740 2.891323 -17.392722 -12.109636 1.249288 3.498506 -21.366766 9.397422 -2.768210 -0.528575 65.242548 -12.095027 35.899266 -5.307589 -25.041813 41.817085 -42.014194 14.299482 35.675533 -7.564309 0.697618 9.081071 -71.034452 21.637899 23.628196 11.568945 13.267126 10.207394 9.860862 2.051672 -11.448838 -10.588502 -8.224682 -10.922461 6.074409 -43.971781 -1.051059 24.341638 -14.812944 12.772257 -39.379988 48.179325 -17.210933 -13.611281 0.775431 4.821130 -3.444519 -3.140755 5.994729 7.044107 -5.847263 -0.467052 -1.233243 1.087462 0.761642 
101.278961 46.466602 80.686417 -0.478474 6.610229 -18.189665 2.008936 -2.487150 1.282206 1.384196 -1.006040 0.597891 1.384194 -1.006039 0.597890 1.039105 -0.753181 0.450688 2.357624 -17.506755 -11.509608 0.482158 3.267451 -20.432741 9.454614 -2.373945 -0.495421 66.317995 -11.776855 34.668285 -3.903030 -24.320613 42.750946 -43.393059 18.264513 38.873598 -7.735104 0.976820 9.373761 -69.823241 22.334908 23.935867 11.562105 14.450947 10.175775 9.254528 3.130705 -10.817338 -11.232063 -5.539836 -10.257679 5.613586 -48.568734 -0.122212 26.522666 -17.869680 13.231563 -44.332425 47.692216 -21.140358 -14.034058 0.252535 4.220152 -3.559288 -3.552420 6.546261 7.914703 -4.218535 0.075016 -1.430075 0.297636 0.313535 
